HIERARCHY
ROOT Hips
{
  OFFSET 5.84602e-005 68.8428 3.50346
  CHANNELS 6 Xposition Yposition Zposition Zrotation Xrotation Yrotation
  JOINT Spine
  {
    OFFSET 0 8.597 -4.6522
    CHANNELS 3 Zrotation Xrotation Yrotation
    JOINT Spine1
    {
      OFFSET 0 7.8454 0.4098
      CHANNELS 3 Zrotation Xrotation Yrotation
      JOINT Spine2
      {
        OFFSET 0 9.7078 -2.1609
        CHANNELS 3 Zrotation Xrotation Yrotation
        JOINT Neck
        {
          OFFSET 0 21.8761 -0.4549
          CHANNELS 3 Zrotation Xrotation Yrotation
          JOINT Head
          {
            OFFSET 0 12.3537 3.3602
            CHANNELS 3 Zrotation Xrotation Yrotation
            End Site
            {
              OFFSET 0.0001 18.9506 0.5657
            }
          }
        }
        JOINT LeftShoulder
        {
          OFFSET 2.2086 21.1115 7.2329
          CHANNELS 3 Zrotation Xrotation Yrotation
          JOINT LeftArm
          {
            OFFSET 13.1193 3.0282 -4.8998
            CHANNELS 3 Zrotation Xrotation Yrotation
            JOINT LeftForeArm
            {
              OFFSET 27.4081 -0.0973053 -0.2375
              CHANNELS 3 Zrotation Xrotation Yrotation
              JOINT LeftHand
              {
                OFFSET 22.8641 0.0662994 -0.1369
                CHANNELS 3 Zrotation Xrotation Yrotation
                JOINT LeftHandIndex1
                {
                  OFFSET 8.8614 0.775009 2.4612
                  CHANNELS 3 Zrotation Xrotation Yrotation
                  JOINT LeftHandIndex2
                  {
                    OFFSET 3.3146 -0.808304 0.5841
                    CHANNELS 3 Zrotation Xrotation Yrotation
                    JOINT LeftHandIndex3
                    {
                      OFFSET 2.2628 -0.552002 0.3989
                      CHANNELS 3 Zrotation Xrotation Yrotation
                      End Site
                      {
                        OFFSET 1.6102 -0.4807 0.2612
                      }
                    }
                  }
                }
                JOINT LeftHandMiddle1
                {
                  OFFSET 8.9937 0.895004 0.2143
                  CHANNELS 3 Zrotation Xrotation Yrotation
                  JOINT LeftHandMiddle2
                  {
                    OFFSET 4.0984 0.0113983 -0.0242
                    CHANNELS 3 Zrotation Xrotation Yrotation
                    JOINT LeftHandMiddle3
                    {
                      OFFSET 2.2716 0.00689697 -0.0138001
                      CHANNELS 3 Zrotation Xrotation Yrotation
                      End Site
                      {
                        OFFSET 2.0404 -0.1441 0.0027
                      }
                    }
                  }
                }
                JOINT LeftHandRing1
                {
                  OFFSET 8.5234 0.597198 -2.0164
                  CHANNELS 3 Zrotation Xrotation Yrotation
                  JOINT LeftHandRing2
                  {
                    OFFSET 3.7188 -0.188293 -0.2328
                    CHANNELS 3 Zrotation Xrotation Yrotation
                    JOINT LeftHandRing3
                    {
                      OFFSET 2.1191 -0.106598 -0.1332
                      CHANNELS 3 Zrotation Xrotation Yrotation
                      End Site
                      {
                        OFFSET 1.8737 -0.2304 -0.0886
                      }
                    }
                  }
                }
                JOINT LeftHandPinky1
                {
                  OFFSET 7.9094 -0.601089 -3.4825
                  CHANNELS 3 Zrotation Xrotation Yrotation
                  JOINT LeftHandPinky2
                  {
                    OFFSET 2.2874 -0.477005 -0.6314
                    CHANNELS 3 Zrotation Xrotation Yrotation
                    JOINT LeftHandPinky3
                    {
                      OFFSET 1.6774 -0.349396 -0.4633
                      CHANNELS 3 Zrotation Xrotation Yrotation
                      End Site
                      {
                        OFFSET 1.4888 -0.4091 -0.3416
                      }
                    }
                  }
                }
                JOINT LeftHandThumb1
                {
                  OFFSET 1.833 -1.3875 1.3896
                  CHANNELS 3 Zrotation Xrotation Yrotation
                  JOINT LeftHandThumb2
                  {
                    OFFSET 3.4129 -1.121 2.5732
                    CHANNELS 3 Zrotation Xrotation Yrotation
                    JOINT LeftHandThumb3
                    {
                      OFFSET 2.2474 -0.804199 1.6192
                      CHANNELS 3 Zrotation Xrotation Yrotation
                      End Site
                      {
                        OFFSET 1.6527 -0.5689 1.1317
                      }
                    }
                  }
                }
              }
            }
          }
        }
        JOINT RightShoulder
        {
          OFFSET -2.2086 21.1115 7.2329
          CHANNELS 3 Zrotation Xrotation Yrotation
          JOINT RightArm
          {
            OFFSET -13.1216 3.0287 -4.9007
            CHANNELS 3 Zrotation Xrotation Yrotation
            JOINT RightForeArm
            {
              OFFSET -27.4081 -0.0973053 -0.2375
              CHANNELS 3 Zrotation Xrotation Yrotation
              JOINT RightHand
              {
                OFFSET -22.8641 0.0664063 -0.1369
                CHANNELS 3 Zrotation Xrotation Yrotation
                JOINT RightHandIndex1
                {
                  OFFSET -8.8614 0.774994 2.4612
                  CHANNELS 3 Zrotation Xrotation Yrotation
                  JOINT RightHandIndex2
                  {
                    OFFSET -3.3146 -0.808304 0.5841
                    CHANNELS 3 Zrotation Xrotation Yrotation
                    JOINT RightHandIndex3
                    {
                      OFFSET -2.2628 -0.552002 0.3989
                      CHANNELS 3 Zrotation Xrotation Yrotation
                      End Site
                      {
                        OFFSET -1.6102 -0.4807 0.2612
                      }
                    }
                  }
                }
                JOINT RightHandMiddle1
                {
                  OFFSET -8.9937 0.894989 0.2143
                  CHANNELS 3 Zrotation Xrotation Yrotation
                  JOINT RightHandMiddle2
                  {
                    OFFSET -4.0984 0.0113983 -0.0242
                    CHANNELS 3 Zrotation Xrotation Yrotation
                    JOINT RightHandMiddle3
                    {
                      OFFSET -2.2716 0.00691223 -0.0138001
                      CHANNELS 3 Zrotation Xrotation Yrotation
                      End Site
                      {
                        OFFSET -2.0404 -0.1441 0.0027
                      }
                    }
                  }
                }
                JOINT RightHandRing1
                {
                  OFFSET -8.5234 0.597198 -2.0164
                  CHANNELS 3 Zrotation Xrotation Yrotation
                  JOINT RightHandRing2
                  {
                    OFFSET -3.7188 -0.188309 -0.2328
                    CHANNELS 3 Zrotation Xrotation Yrotation
                    JOINT RightHandRing3
                    {
                      OFFSET -2.1191 -0.106598 -0.1332
                      CHANNELS 3 Zrotation Xrotation Yrotation
                      End Site
                      {
                        OFFSET -1.8737 -0.2304 -0.0886
                      }
                    }
                  }
                }
                JOINT RightHandPinky1
                {
                  OFFSET -7.9094 -0.601105 -3.4825
                  CHANNELS 3 Zrotation Xrotation Yrotation
                  JOINT RightHandPinky2
                  {
                    OFFSET -2.2874 -0.477005 -0.6314
                    CHANNELS 3 Zrotation Xrotation Yrotation
                    JOINT RightHandPinky3
                    {
                      OFFSET -1.6774 -0.349396 -0.4633
                      CHANNELS 3 Zrotation Xrotation Yrotation
                      End Site
                      {
                        OFFSET -1.4888 -0.4091 -0.3416
                      }
                    }
                  }
                }
                JOINT RightHandThumb1
                {
                  OFFSET -1.833 -1.38751 1.3896
                  CHANNELS 3 Zrotation Xrotation Yrotation
                  JOINT RightHandThumb2
                  {
                    OFFSET -3.41299 -1.12099 2.5732
                    CHANNELS 3 Zrotation Xrotation Yrotation
                    JOINT RightHandThumb3
                    {
                      OFFSET -2.24741 -0.804108 1.6192
                      CHANNELS 3 Zrotation Xrotation Yrotation
                      End Site
                      {
                        OFFSET -1.6527 -0.5689 1.1317
                      }
                    }
                  }
                }
              }
            }
          }
        }
      }
    }
  }
  JOINT RightUpLeg
  {
    OFFSET -9.1966 3.8861 -0.7581
    CHANNELS 3 Zrotation Xrotation Yrotation
    JOINT RightLeg
    {
      OFFSET -0.7359 -41.0265 0
      CHANNELS 3 Zrotation Xrotation Yrotation
      JOINT RightFoot
      {
        OFFSET 0 -40.2855 0
        CHANNELS 3 Zrotation Xrotation Yrotation
        JOINT RightToeBase
        {
          OFFSET 0 -5.6122 11.7359
          CHANNELS 3 Zrotation Xrotation Yrotation
          End Site
          {
            OFFSET 0 0 7.8731
          }
        }
      }
    }
  }
  JOINT LeftUpLeg
  {
    OFFSET 9.1965 3.8864 -0.7581
    CHANNELS 3 Zrotation Xrotation Yrotation
    JOINT LeftLeg
    {
      OFFSET 0.7359 -41.0268 0
      CHANNELS 3 Zrotation Xrotation Yrotation
      JOINT LeftFoot
      {
        OFFSET 0 -40.2855 0
        CHANNELS 3 Zrotation Xrotation Yrotation
        JOINT LeftToeBase
        {
          OFFSET 0 -5.6122 11.7359
          CHANNELS 3 Zrotation Xrotation Yrotation
          End Site
          {
            OFFSET 0 0 7.8731
          }
        }
      }
    }
  }
}
MOTION
Frames:	4
Frame Time:	0.0333333
5.84602e-005 68.8428 3.50346 0 0 -0 0 0 -0 0 0 -0 0 0 -0 0 0 -0 0 0 -0 0 0 -0 0 0 -0 0 0 -0 0 0 -0 0 0 -0 0 0 -0 0 0 -0 0 0 -0 -0.0146107 -8.87603e-005 -2.63497e-007 2.99804e-018 -2.42657e-020 -1.42182e-022 0 0 -0 -0.0187562 -0.001176 5.858e-005 5.06224e-018 3.88251e-019 1.21329e-020 0 0 -0 -0.012269 -0.00324817 0.000675346 -1.74678e-018 3.88251e-019 -0 0 0 -0 0 0 -0 0 0 -0 0 0 -0 0 0 -0 0 0 -0 0 0 -0 0 0 -0 0 0 -0 0 0 -0 0 0 -0 0.0149955 -9.10982e-005 2.64101e-007 -9.69331e-018 1.21329e-020 -4.7394e-023 0 0 -0 0.0189956 -0.00119102 -5.96516e-005 -5.41541e-019 0 2.42657e-020 0 0 -0 0.0122698 -0.00324857 -0.000673756 -2.00796e-019 0 -1.94126e-019 0 0 -0 0 0 -0 0 0 -0 3.39842 1.33031 -0.0637918 -5.65207e-008 0.834868 -0.000436188 -3.39935 -2.16518 -0.0642563 -8.89002e-024 -1.18485e-023 -1.48106e-024 -3.39844 1.35642 0.0640283 -3.18788e-007 0.782166 -0.000588827 3.39931 -2.13858 0.0634662 1.1399e-023 0 -0 
42.2228 -8.38933 7.41715 -0 -26.5637 -0 -0.0114655 -3.13145 -0.138774 -0.0306088 -6.26286 -0.278804 -0.0306089 -6.26286 -0.278804 -8.18103e-006 18.9868 5.95274e-006 -5.70829e-008 9.3137 -4.19103e-009 -14.8218 14.8 3.43769 -71.9737 -8.83075 -44.2372 18.9874 31.5932 -25.1537 -60.6266 11.4877 8.16071 9.54166e-015 1.49089e-014 7.15625e-015 -2.94969e-007 2.19578e-007 2.1601e-007 -2.94969e-007 2.19578e-007 2.1601e-007 9.54166e-015 1.49089e-014 7.15625e-015 -0.0146298 -9.16482e-005 2.53693e-006 -2.94966e-007 2.19551e-007 2.16038e-007 9.54166e-015 1.49089e-014 7.15625e-015 -0.0188033 -0.00117465 5.9063e-005 -2.94963e-007 2.19543e-007 2.16049e-007 9.54166e-015 1.49089e-014 7.15625e-015 -0.0122275 -0.00323698 0.00067226 -2.94959e-007 2.19557e-007 2.16041e-007 9.54166e-015 1.49089e-014 7.15625e-015 -2.94969e-007 2.19578e-007 2.1601e-007 -2.94969e-007 2.19578e-007 2.1601e-007 14.8427 14.5128 -3.18088 71.5865 -9.05484 43.8658 -19.4581 31.3406 25.7195 61.1606 11.549 -8.6993 5.84686e-007 4.46033e-007 -4.32543e-007 -1.30001e-006 -9.05107e-007 -8.69126e-006 1.02019e-006 -5.82171e-007 -1.71721e-006 5.84686e-007 4.46033e-007 -4.32543e-007 0.0150277 -9.04598e-005 2.978e-006 8.77022e-007 6.68965e-007 -6.48903e-007 5.84686e-007 4.46033e-007 -4.32543e-007 0.0189599 -0.00119157 -6.0884e-005 8.77013e-007 6.68943e-007 -6.48935e-007 5.84686e-007 4.46033e-007 -4.32543e-007 0.0122379 -0.00323538 -0.000674387 8.77001e-007 6.68987e-007 -6.48911e-007 5.84686e-007 4.46033e-007 -4.32543e-007 -1.30001e-006 -9.05107e-007 -8.69126e-006 1.02019e-006 -5.82171e-007 -1.71721e-006 -55.1199 -45.5514 -126.147 2.00052 53.4777 -3.18284 -3.4712 15.8768 -6.97113 -3.13708e-006 -1.60281e-006 -6.49822e-006 55.1105 -45.5632 126.115 -2.04313 53.4852 3.19013 3.46969 15.884 6.97877 5.43223e-007 -3.57203e-006 3.85417e-006 
39.7391 -3.92505 6.99989 -0 -25.0011 -0 -0.0124016 -2.58238 -0.130246 -0.0307333 -5.16468 -0.261451 -0.0307333 -5.16469 -0.261451 -2.03179e-007 17.371 -1.3962e-006 -7.28055e-009 7.86681 -2.32737e-007 -13.4209 12.5673 1.96804 -67.0112 -9.08066 -41.746 16.5453 30.2398 -22.4807 -56.4432 10.6589 6.8715 -2.78482e-007 2.3629e-007 2.20248e-007 -5.56964e-007 4.7258e-007 4.40495e-007 -1.72142e-030 -4.77083e-015 -2.06736e-014 -2.78482e-007 2.3629e-007 2.20248e-007 -0.0146394 -9.27881e-005 4.98878e-006 -6.36111e-015 6.36111e-015 3.97569e-015 -2.78482e-007 2.3629e-007 2.20248e-007 -0.0188142 -0.0011811 6.12949e-005 0 0 -5.56597e-015 -2.78482e-007 2.3629e-007 2.20248e-007 -0.0122425 -0.00323917 0.000676112 -9.54166e-015 2.38542e-015 -1.59028e-015 -2.78482e-007 2.3629e-007 2.20248e-007 -5.56964e-007 4.7258e-007 4.40495e-007 -1.72142e-030 -4.77083e-015 -2.06736e-014 13.4708 12.3238 -1.70793 66.6356 -9.30281 41.3937 -16.9688 30.026 23.0022 56.9072 10.7068 -7.34527 -2.75777e-007 -2.39395e-007 2.20493e-007 -1.10311e-006 -9.57582e-007 8.81974e-007 -5.51554e-007 -4.78791e-007 4.40987e-007 -2.75777e-007 -2.39395e-007 2.20493e-007 0.0149963 -9.50576e-005 1.76199e-006 -5.5155e-007 -4.78733e-007 4.4105e-007 -2.75777e-007 -2.39395e-007 2.20493e-007 0.0189924 -0.00119178 -5.81815e-005 -5.51544e-007 -4.78718e-007 4.41072e-007 -2.75777e-007 -2.39395e-007 2.20493e-007 0.0122526 -0.00324104 -0.000674206 -5.51536e-007 -4.78748e-007 4.41053e-007 -2.75777e-007 -2.39395e-007 2.20493e-007 -1.10311e-006 -9.57582e-007 8.81974e-007 -5.51554e-007 -4.78791e-007 4.40987e-007 -52.6028 -50.9496 -121.981 1.91117 50.052 -2.95044 -3.54301 14.7469 -6.53662 3.18055e-015 3.18055e-015 6.36111e-015 52.5881 -50.9587 121.945 -1.94936 50.0554 2.95385 3.54202 14.7539 6.54369 2.67479e-006 4.71464e-006 3.72969e-006 
39.7391 -3.92613 6.84207 -0 -25.0011 -0 -0.0139451 -2.23427 -0.130025 -0.0330067 -4.46849 -0.260894 -0.0330067 -4.46849 -0.260893 6.2107e-007 16.9 -7.69143e-007 3.03189e-009 7.01527 -4.56515e-008 -12.9979 11.2662 0.796793 -66.6885 -9.47613 -41.8875 16.1144 30.4249 -21.7557 -55.9496 10.496 6.12551 -1.39165e-006 1.18278e-006 1.10072e-006 -1.94832e-006 1.65589e-006 1.541e-006 -2.78331e-007 2.36556e-007 2.20143e-007 -1.39165e-006 1.18278e-006 1.10072e-006 -0.0145809 -8.73364e-005 6.43063e-006 -2.78328e-007 2.36528e-007 2.20174e-007 -1.39165e-006 1.18278e-006 1.10072e-006 -0.0187966 -0.00117708 5.94732e-005 -2.78325e-007 2.3652e-007 2.20185e-007 -1.39165e-006 1.18278e-006 1.10072e-006 -0.0122365 -0.00324299 0.000683632 -2.78321e-007 2.36535e-007 2.20176e-007 -1.39165e-006 1.18278e-006 1.10072e-006 -1.94832e-006 1.65589e-006 1.541e-006 -2.78331e-007 2.36556e-007 2.20143e-007 13.0714 11.049 -0.517029 66.3083 -9.70796 41.5347 -16.5287 30.2218 22.2673 56.3837 10.5321 -6.56944 -2.75618e-007 -2.39664e-007 2.20392e-007 -2.64834e-031 -4.77083e-015 -3.18055e-015 -5.51236e-007 -4.79328e-007 4.40784e-007 -2.75618e-007 -2.39664e-007 2.20392e-007 0.014978 -9.38802e-005 3.33807e-006 -5.51231e-007 -4.79271e-007 4.40847e-007 -2.75618e-007 -2.39664e-007 2.20392e-007 0.0190275 -0.00119554 -5.66438e-005 -8.77454e-007 4.20441e-007 9.8059e-007 -2.75618e-007 -2.39664e-007 2.20392e-007 0.0122456 -0.00324075 -0.000677107 -5.51217e-007 -4.79285e-007 4.40851e-007 -2.75618e-007 -2.39664e-007 2.20392e-007 -2.64834e-031 -4.77083e-015 -3.18055e-015 -5.51236e-007 -4.79328e-007 4.40784e-007 -52.5798 -50.9572 -121.946 1.98661 49.5339 -2.98892 -3.54502 14.7596 -6.53595 5.13992e-008 2.68355e-006 -1.51615e-006 52.565 -50.9662 121.91 -2.02337 49.5343 2.98939 3.54398 14.7666 6.54304 -1.59028e-015 3.18055e-015 -3.18055e-015 
